<?xml version="1.0" encoding="UTF-8"?>
<svg width="180" height="48" viewBox="0 0 180 48" fill="none" xmlns="http://www.w3.org/2000/svg" role="img" aria-label="Rwandan Community in Arizona">
  <defs>
    <linearGradient id="sunset" x1="0" y1="0" x2="180" y2="48" gradientUnits="userSpaceOnUse">
      <stop offset="0" stop-color="#00A1DE"/>
      <stop offset="0.5" stop-color="#FAD201"/>
      <stop offset="1" stop-color="#E57E25"/>
    </linearGradient>
  </defs>
  <!-- Desert ridge -->
  <path d="M0 40 C40 28, 80 50, 120 36 C140 32, 160 40, 180 34 L180 48 L0 48 Z" fill="#20603D" opacity="0.85"/>
  <!-- Sun -->
  <circle cx="130" cy="16" r="10" fill="#FAD201"/>
  <!-- Rays -->
  <g stroke="#FAD201" stroke-width="1.2">
    <line x1="130" y1="1" x2="130" y2="7"/>
    <line x1="130" y1="25" x2="130" y2="31"/>
    <line x1="115" y1="16" x2="121" y2="16"/>
    <line x1="139" y1="16" x2="145" y2="16"/>
    <line x1="119" y1="5" x2="123" y2="9"/>
    <line x1="137" y1="23" x2="141" y2="27"/>
    <line x1="119" y1="27" x2="123" y2="23"/>
    <line x1="137" y1="9" x2="141" y2="5"/>
  </g>
  <!-- Cactus -->
  <path d="M40 38 c0-7 0-12 6-12 s6 5 6 12 h-4 c0-4 0-8-2-8 s-2 4-2 8 h-4 z
           M54 38 c0-5 0-18 6-18 s6 13 6 18 h-4 c0-3 0-14-2-14 s-2 11-2 14 h-4 z" fill="#20603D"/>
  <!-- Text -->
  <text x="8" y="18" font-family="Poppins, Arial, sans-serif" font-size="12" font-weight="700" fill="url(#sunset)">
    RWANDAN COMMUNITY
  </text>
  <text x="8" y="32" font-family="Poppins, Arial, sans-serif" font-size="10" font-weight="600" fill="url(#sunset)">
    IN ARIZONA
  </text>
</svg>
